<svg xmlns="http://www.w3.org/2000/svg" viewBox="0 0 100 100">
  <circle cx="50" cy="50" r="50" fill="#003B99"/>
  <g transform="translate(50,50)" fill="#FFF">
    <circle r="15"/>
    <polygon points="0,-42 -5,-18 5,-18"/>
    <polygon points="0,-42 -5,-18 5,-18" transform="rotate(30)"/>
    <polygon points="0,-42 -5,-18 5,-18" transform="rotate(60)"/>
    <polygon points="0,-42 -5,-18 5,-18" transform="rotate(90)"/>
    <polygon points="0,-42 -5,-18 5,-18" transform="rotate(120)"/>
    <polygon points="0,-42 -5,-18 5,-18" transform="rotate(150)"/>
    <polygon points="0,-42 -5,-18 5,-18" transform="rotate(180)"/>
    <polygon points="0,-42 -5,-18 5,-18" transform="rotate(210)"/>
    <polygon points="0,-42 -5,-18 5,-18" transform="rotate(240)"/>
    <polygon points="0,-42 -5,-18 5,-18" transform="rotate(270)"/>
    <polygon points="0,-42 -5,-18 5,-18" transform="rotate(300)"/>
    <polygon points="0,-42 -5,-18 5,-18" transform="rotate(330)"/>
  </g>
</svg>
